REM MD5 25591657f32e6961c7728b21e113f409
FILE "Pro Pinball - Timeshock! (USA) (Demo).bin" BINARY
  TRACK 01 MODE2/2352
    INDEX 01 00:00:00
  TRACK 02 AUDIO
    INDEX 00 04:16:05
    INDEX 01 04:18:05
  TRACK 03 AUDIO
    INDEX 00 06:36:28
    INDEX 01 06:38:28
REM LEADOUT 09:58:28
